<svg xmlns="http://www.w3.org/2000/svg" width="24" height="24" fill="none"><path fill="#fff" d="M3.42 4c-.51 0-.92.412-.92.923V6.77c0 .512.41.923.92.923h1.838c.51 0 .92-.411.92-.923V4.923A.919.919 0 0 0 5.257 4H3.42Zm5.822.615c-.678 0-1.226.55-1.226 1.231 0 .68.548 1.23 1.226 1.23h11.032c.678 0 1.226-.55 1.226-1.23 0-.68-.548-1.23-1.226-1.23H9.242Zm0 6.154c-.678 0-1.226.55-1.226 1.231 0 .68.548 1.23 1.226 1.23h11.032c.678 0 1.226-.55 1.226-1.23 0-.68-.548-1.23-1.226-1.23H9.242Zm0 6.154c-.678 0-1.226.55-1.226 1.23 0 .682.548 1.232 1.226 1.232h11.032c.678 0 1.226-.55 1.226-1.231 0-.68-.548-1.23-1.226-1.23H9.242ZM2.5 11.077v1.846c0 .512.41.923.92.923h1.838a.92.92 0 0 0 .92-.923v-1.846a.92.92 0 0 0-.92-.923H3.42a.92.92 0 0 0-.919.923Zm.92 5.23c-.51 0-.92.412-.92.924v1.846c0 .511.41.923.92.923h1.838c.51 0 .92-.412.92-.923V17.23a.919.919 0 0 0-.92-.923H3.42Z"/></svg>