<svg xmlns="http://www.w3.org/2000/svg" width="24" height="24" fill="none"><path fill="#fff" d="M12 3c-1.957 0-3.545 1.512-3.545 3.375V12c0 1.863 1.588 3.375 3.545 3.375 1.957 0 3.546-1.512 3.546-3.375V6.375C15.546 4.512 13.957 3 12 3Zm-4.727 7.594c0-.468-.395-.844-.887-.844-.49 0-.886.376-.886.844V12c0 3.132 2.445 5.72 5.614 6.131v1.181H9.34c-.491 0-.886.377-.886.844 0 .468.395.844.886.844h5.318c.491 0 .886-.376.886-.844 0-.467-.395-.843-.886-.843h-1.773V18.13C16.056 17.72 18.5 15.132 18.5 12v-1.406c0-.468-.395-.844-.886-.844-.492 0-.887.376-.887.844V12c0 2.486-2.116 4.5-4.727 4.5S7.273 14.486 7.273 12v-1.406Z"/></svg>