<svg xmlns="http://www.w3.org/2000/svg" width="32" height="32" fill="none"><path fill="#005E59" fill-rule="evenodd" d="M6.064 3.83a2.836 2.836 0 0 1 4.24.264l2.918 3.747c.534.688.723 1.583.512 2.428l-.89 3.56a1.105 1.105 0 0 0 .29 1.044l3.992 3.993a1.106 1.106 0 0 0 1.047.29l3.557-.89a2.845 2.845 0 0 1 2.428.512l3.747 2.916a2.835 2.835 0 0 1 .265 4.243l-1.68 1.68c-1.203 1.203-3 1.73-4.676 1.14a30.225 30.225 0 0 1-11.39-7.182 30.227 30.227 0 0 1-7.183-11.39c-.588-1.674-.06-3.473 1.143-4.676l1.68-1.68Z" clip-rule="evenodd"/></svg>