<svg xmlns="http://www.w3.org/2000/svg" width="16" height="16" fill="none"><path fill="#FC0" d="M13.98 6.54a.628.628 0 0 0-.198-.291.584.584 0 0 0-.317-.13l-3.41-.521-1.528-3.244a.618.618 0 0 0-.22-.258.58.58 0 0 0-.637 0 .618.618 0 0 0-.221.258L5.92 5.592l-3.41.527a.587.587 0 0 0-.3.14.63.63 0 0 0-.035.914l2.475 2.51-.6 3.564a.655.655 0 0 0 .033.35.624.624 0 0 0 .207.277.582.582 0 0 0 .63.044l3.067-1.675 3.056 1.682c.084.05.179.075.275.075.127 0 .251-.041.354-.12a.624.624 0 0 0 .207-.276.655.655 0 0 0 .033-.35l-.6-3.565 2.475-2.51a.63.63 0 0 0 .184-.29.656.656 0 0 0 .008-.35Z"/></svg>