<svg xmlns="http://www.w3.org/2000/svg" width="32" height="32" fill="none"><path fill="#005E59" fill-rule="evenodd" d="M26.1 4.164a2.083 2.083 0 0 1 2.104.286 2.097 2.097 0 0 1 .768 1.987l-3.16 19.23c-.306 1.854-2.334 2.918-4.03 1.994-1.418-.773-3.524-1.964-5.419-3.207-.947-.622-3.849-2.613-3.492-4.03.306-1.213 5.182-5.767 7.968-8.474 1.094-1.064.595-1.677-.696-.699-3.207 2.43-8.356 6.124-10.059 7.164-1.501.917-2.284 1.073-3.22.917-1.708-.285-3.292-.727-4.585-1.265-1.747-.727-1.662-3.137-.002-3.839L26.1 4.164Z" clip-rule="evenodd"/></svg>