<svg xmlns="http://www.w3.org/2000/svg" width="78" height="24" fill="none"><path fill="#282828" fill-rule="evenodd" d="M43.146 7.427c0 1.284-.309 2.487-.927 3.61-.596 1.123-1.547 2.029-2.852 2.717-1.283.687-2.91 1.031-4.88 1.031h-4.02V24h-4.81V0h8.83c1.856 0 3.436.32 4.742.963 1.306.642 2.28 1.524 2.92 2.647.665 1.124.997 2.396.997 3.817ZM34.281 10.9c1.329 0 2.314-.298 2.955-.894.642-.62.962-1.479.962-2.58 0-2.337-1.306-3.506-3.917-3.506h-3.814v6.98h3.814ZM52.403 0v24h-4.81V0h4.81Zm10.595 13.307L71.726 24h6.082L67.637 11.897 77.533 0h-5.807l-8.728 10.762V0h-4.81v24h4.81V13.307ZM10.748 7.998l-.027.048L5.532 0H0l7.663 11.897L.103 24h5.43l4.707-8.08L15.428 24h5.533l-7.663-11.931.024-.039-2.573-4.032Z" clip-rule="evenodd"/><path fill="#008B69" d="M21.366.078h-5.952v5.956h5.952V.078Z"/></svg>